<svg width="170" height="45" viewBox="0 0 170 45" fill="none" xmlns="http://www.w3.org/2000/svg">
<path d="M1.31055 43.0654H168.875V0.768578H1.31055V43.0654Z" fill="white"/>
<path d="M1.31055 43.3594H168.875V0.768975H1.31055V43.3594V43.3594Z" stroke="white" stroke-width="1.36875"/>
<path d="M5.45996 39.6045H164.725V4.52344H5.45996V39.6045Z" fill="#D6001C"/>
<path d="M5.45996 39.6045H164.725V4.52344H5.45996V39.6045Z" stroke="#D6001C" stroke-width="2.28"/>
<path d="M13.3975 28.8048L16.2252 32.5016H25.2861V27.4274H18.617V16.6985H25.2861V11.625H16.2252L13.3975 15.3218V28.8048Z" fill="white"/>
<path d="M33.0242 20.3963H35.4887V16.6993H33.0242V20.3963ZM37.3703 11.626L40.8494 15.6048V21.7664L38.53 24.5211L42.5898 32.4946H36.9357L33.0213 24.7995V32.4946H27.8018V11.626H37.3703Z" fill="white"/>
<path d="M49.9244 21.0482H52.8238V16.6985H49.9244V21.0482ZM49.9244 26.2677V32.5016H44.5596V15.3218L47.7496 11.625H54.9986L58.1886 15.3218V32.5016H52.8237V26.2677H49.9244Z" fill="white"/>
<path d="M61.2871 11.625V32.5016H66.5066V25.1079H71.5801V20.5406H66.5066V16.6985H71.5801V11.625H61.2871Z" fill="white"/>
<path d="M87.4348 11.625H74.8216L73.082 16.6985H77.6335V32.5016H82.853V16.6985H85.8072L87.4348 11.625Z" fill="white"/>
<path d="M95.6208 27.0644L88.4448 16.6985L90.1121 11.625H101.493L99.7529 16.6985H94.7511L101.783 26.8475L99.9706 32.5016H87.8643L89.6827 27.0644H95.6208Z" fill="white"/>
<path d="M113.163 19.7431L116.57 11.625H122.152V32.5016H116.933V24.2382L114.395 30.1091H111.931L109.394 24.2382V32.5016H104.175V11.625H109.756L113.163 19.7431Z" fill="white"/>
<path d="M151.349 32.5016H156.568V11.625H151.349V19.4539L147.797 11.625H142.577V32.5016H147.797V24.6727L151.349 32.5016Z" fill="white"/>
<path d="M131.14 21.0482H134.04V16.6985H131.14V21.0482ZM131.14 26.2677V32.5016H125.776V15.3218L128.966 11.625H136.215L139.405 15.3218V32.5016H134.04V26.2677H131.14Z" fill="white"/>
<path d="M161.301 13.7242C161.301 14.6475 160.644 15.2679 159.869 15.2686V15.2634C159.074 15.2686 158.432 14.6481 158.432 13.7255C158.431 12.8029 159.073 12.1876 159.868 12.1869C160.642 12.1869 161.3 12.8015 161.301 13.7241V13.7242ZM161.879 13.7242C161.878 12.4567 160.929 11.72 159.868 11.7207C158.802 11.7213 157.853 12.4589 157.854 13.7264C157.854 14.9938 158.804 15.7306 159.869 15.7299C160.931 15.7293 161.879 14.9917 161.879 13.7242ZM159.535 13.8948H159.752L160.251 14.8015H160.797L160.245 13.8572C160.532 13.8363 160.765 13.6931 160.765 13.2954C160.765 12.8016 160.435 12.6433 159.879 12.6433L159.073 12.6439L159.074 14.8021L159.535 14.8015L159.534 13.8948H159.535ZM159.535 13.529L159.534 13.0099L159.858 13.0093C160.033 13.0093 160.271 13.0252 160.272 13.2479C160.272 13.4865 160.15 13.5291 159.943 13.5291H159.535" fill="white"/>
</svg>
